<svg preserveAspectRatio="xMidYMid meet" data-bbox="0.002 -0.04 626.086 774.04" viewBox="0.002 -0.04 626.086 774.04" xmlns="http://www.w3.org/2000/svg" data-type="color" role="presentation" aria-hidden="true">
    <style>
        .logo-path {
            fill: #5a4f56;
        }
        @media (prefers-color-scheme: dark) {
            .logo-path {
                fill: #d4b896;
            }
        }
    </style>
    <g>
        <g>
            <path d="M105.34 760.89C167.62 767.94 235.94 774 307.6 774s140-6.06 202.27-13.11z" class="logo-path" data-color="1"></path>
            <path d="M231.32 702.39a52.71 52.71 0 0 1-.7-6.92h-.74c-.91.91-1 1-1.7.87a20.06 20.06 0 0 0-5.87-.91c-7.52 0-16.35 4.31-16.35 14 0 5.61 3.61 13.87 15.7 13.87a84.91 84.91 0 0 0 11.44-1.3v-.61c-.65-.43-1-.65-1-5.18 0-4.83.13-5.26 1.65-5.52v-1.22l-3 .13c-1.13 0-6.52.09-7.74.13l-.13 1.26c4.65 0 4.78 0 4.78 5.87a8.75 8.75 0 0 1-.35 3c-.7 1.35-3.26 2-5.18 2-5.61 0-11.27-4.65-11.27-12.61s5-12.18 10.7-12.18c6.39 0 8.26 4.09 8.87 5.39z" class="logo-path" data-color="1"></path>
            <path d="M254.86 723.32a41.3 41.3 0 0 1 5.35-.3h2.61c.74 0 1.48.09 2.87.26l.17-1c-.61-.09-2.35-.48-2.91-1.3s-.57-5.26-.57-6.7c0-2.44 0-3.22.09-4.18a24.66 24.66 0 0 0 2.61.17c7.13 14.31 13.22 14.31 17.44 14.22v-1.13c-4.39-.35-7.74-4.31-12.61-13.61 3.44-1.13 6-3.78 6-7s-2.74-7.26-9.87-7.26c-.52 0-2 .13-3.52.26s-3 .22-3.57.22h-3.7L255 697c.91 0 2.65.09 2.91 2a63.51 63.51 0 0 1 .17 7.57c0 2.22-.09 12.18-.39 13.35-.3 1.39-1 1.7-2.87 2.26v1zm16.31-20.14c0 5.57-4.48 5.57-6.57 5.57a7.42 7.42 0 0 1-2-.17c0-3.78 0-4.31.13-8.44.13-2.78.13-3.35 2.39-3.35 5.26 0 6 4.83 6 6.39z" fill-rule="evenodd" class="logo-path" data-color="1"></path>
            <path d="M299.49 709.31c0 7.61 5.44 14.4 14.61 14.4a14.14 14.14 0 1 0 .26-28.27c-7.57 0-14.87 5.39-14.87 13.87zm5.09-2.35c0-8.87 6.48-9.83 8.57-9.83 7.79 0 10.53 9.61 10.53 15.27 0 8-5.83 9.74-8.61 9.74-7 0-10.48-8-10.48-15.18z" fill-rule="evenodd" class="logo-path" data-color="1"></path>
            <path d="M353.91 706.79c0 1.26-.22 6.87-.22 8 0 7.61 6.78 8.57 10.83 8.57 3.31 0 9-.61 10.83-4.52 1.35-2.91 1.78-10.57 1.83-14.35 0-1.13 0-5.65.3-6.39s1.61-.87 2.57-.91V696h-4.26c-.87 0-1.65-.09-2.3-.09l-2.35.09.17 1.22c2.87.17 3.7.22 3.7 7.31 0 5.39-.26 10.31-1.22 12.83-1.57 4-7 4.09-7.74 4.09a9 9 0 0 1-5.61-1.74c-1.74-1.39-2.31-3.44-2.31-11 0-11 .22-11 3.74-11.61a5.94 5.94 0 0 1 .7-.09l-.26-1h-11.62v1c2.44.22 3 .26 3.09 4.87l.13 5z" class="logo-path" data-color="1"></path>
            <path d="M408.36 713.27h1.78c9.53 0 12-5.92 12-8.79 0-4.57-4.65-9-11.66-9-.7 0-1.44 0-2.17.09s-1.44.09-2.17.09c-1.57 0-4.83 0-5.48-.13a6.4 6.4 0 0 0 0 1.3c2.87.17 3.09.22 3.22 6.74.13 6.83.17 7.57.17 9.44a60.52 60.52 0 0 1-.3 7.66c-.13.43-.22.78-2.7 1.48v1h1c1 0 2.7-.22 4.39-.22h3.7c.92 0 1.52.13 2.26.17V722c-1.74 0-3.48-.35-3.83-1.3a26.53 26.53 0 0 1-.26-4.18v-3.26zm8.7-8.44c0 6.92-5.09 7-6 7a12.41 12.41 0 0 1-2.74-.39c0-6.44 0-7.13.26-14a5.55 5.55 0 0 1 2.3-.48c2.74 0 6.13 1.87 6.13 7.83z" fill-rule="evenodd" class="logo-path" data-color="1"></path>
            <path d="M135.16 122.06a10.61 10.61 0 0 1-4.79-8.67c-.19-5.5 3.55-10.14 8.46-10.65a5.39 5.39 0 0 1 2.71.62c.83.44 2.94.7 3.24-.77a10.57 10.57 0 0 0-15.66-.1 26.57 26.57 0 0 0-2.54 3.78 15.12 15.12 0 0 0-1.09 2.54 14.39 14.39 0 0 0-.69 7.38c-3.8-4.88-9.57-7.7-14.65-3.72-2.74 2.14-2 4.85-.42 3.6 3-2.33 6.33-1 8.63 1.55 3 3.35 1.23 8.52-2.28 11.38a7 7 0 0 1-4.57 2c-4.22.21-7.43-3.78-8.5-5.6l-.61-1.19c-5.85-12.56 6-26.54 11.05-31.69 7.77-7.69 21.58-9.24 31.4-4 8.07 4.3 15.7 16 10.24 26.2-3.26 6.11-11.89 11.65-20 7.34zm-3.65-51.78c-10.52.54-22.1 7.7-29.82 19.58-9 13.89-10 30-3.37 39.85A17.4 17.4 0 0 0 101 133c4.76 4.64 13.25 6.32 19.52 1.41 3.51-2.75 6.52-7.49 6.38-12.28a21 21 0 0 0 3.58 4.74 21.56 21.56 0 0 0 14.46 6.55h.71a39.89 39.89 0 0 0 6.57-.55c12.73-1.81 22.31-13.77 21.81-27.9q0-.95-.12-1.88a10.25 10.25 0 0 0-.17-1.09c-.94-11.45-9.42-22.42-20.63-28.36a32.1 32.1 0 0 0-16.38-3.76h-.92c-1.36.07-3.78.21-4.19.27h-.09z" class="logo-path" data-color="1"></path>
            <path d="M485.65 122a10.61 10.61 0 0 0 4.64-8.75c.1-5.5-3.72-10.08-8.64-10.5a5.39 5.39 0 0 0-2.7.67c-.82.45-2.93.75-3.25-.71a10.57 10.57 0 0 1 15.65-.37 26.6 26.6 0 0 1 2.61 3.74 15.12 15.12 0 0 1 1.13 2.52 14.39 14.39 0 0 1 .81 7.36c3.71-4.95 9.44-7.86 14.59-4 2.78 2.1 2.1 4.81.48 3.59-3-2.27-6.35-.87-8.61 1.7-3 3.4-1.08 8.54 2.48 11.34a7 7 0 0 0 4.6 1.89c4.23.13 7.36-3.91 8.4-5.74l.59-1.2c5.63-12.66-6.42-26.44-11.6-31.49-7.91-7.56-21.74-8.86-31.47-3.45-8 4.44-15.42 16.25-9.78 26.37 3.37 6.06 12.09 11.44 20.08 7zm2.74-51.83c10.53.36 22.23 7.31 30.16 19.06C527.82 103 529.07 119 522.61 129a17.4 17.4 0 0 1-2.58 3.36c-4.68 4.73-13.14 6.55-19.49 1.75-3.56-2.69-6.65-7.38-6.59-12.17a21.06 21.06 0 0 1-3.5 4.8 21.57 21.57 0 0 1-14.35 6.8h-.71a39.88 39.88 0 0 1-6.58-.44c-12.76-1.58-22.54-13.38-22.3-27.52q0-.95.09-1.88a10.33 10.33 0 0 1 .15-1.09c.74-11.47 9-22.59 20.13-28.71a32.1 32.1 0 0 1 16.31-4h.92c1.36.05 3.79.15 4.19.19h.09z" class="logo-path" data-color="1"></path>
            <path d="M481.74 207.33a11.81 11.81 0 0 0 10.42 3.58c6.07-.85 10.43-5.85 10-11.32a6 6 0 0 0-1.2-2.85c-.64-.82-1.33-3.09.22-3.7a11.76 11.76 0 0 1 3.14 17.14 29.66 29.66 0 0 1-3.65 3.52 16.91 16.91 0 0 1-2.58 1.68 16 16 0 0 1-7.95 2.18c6.08 3.22 10.28 9 6.9 15.34-1.82 3.42-4.92 3.15-3.86 1.15 2-3.7-.15-7.13-3.37-9.16-4.26-2.69-9.58.3-12 4.7a7.84 7.84 0 0 0-1.28 5.39c.59 4.67 5.58 7.41 7.77 8.24l1.42.44c14.89 4 27.94-11.65 32.59-18.23 6.93-10 6-25.43-1.69-35.18-6.27-8-20.54-14.11-30.69-6.16-6.07 4.76-10.47 15.27-4.19 23.28zm57.44-6c1.44 11.63-4.17 25.7-15.7 36.46-13.48 12.57-30.91 16.74-43 11.39a19.4 19.4 0 0 1-4.15-2.26c-6-4.32-9.49-13.3-5.32-21.12 2.33-4.38 6.95-8.59 12.23-9.36a23.44 23.44 0 0 1-5.89-3c-5.43-3.8-9-9.38-10-14.58l-.16-.77a44.45 44.45 0 0 1-.66-7.31c-.48-14.3 10.78-27.11 26.36-29.29q1-.15 2.08-.23a11.68 11.68 0 0 1 1.23 0c12.73-1.18 26.39 6 35.06 17.13a35.72 35.72 0 0 1 7.28 17.22l.12 1c.18 1.5.5 4.19.52 4.64v.1z" class="logo-path" data-color="1"></path>
            <path d="M180.76 192.54c8.27-1.82 9.46-6.63 9.46-6.63a9.74 9.74 0 0 0 .36-5.87c-1.63-6.12-9-7.94-13.86-6.66-4 1.06-7.78 5.78-10.11 9.19l-27.74 33.18-19.07 17.15c-11.13 9.4-27.52 14-41.1 3.78-10.65-8-19.28-24.77-9.08-38.27 6.1-8.07 17.56-13.15 29.66-7.52 6.23 2.9 13 14.47 6.11 21.87-3 3.22-4.14-.21-2.53-2.33 3.57-4.72.76-9.58-2.59-12.11-6.22-4.7-14.23-1.19-17.8 3.53-6 7.89-1.09 18.75 5.14 23.45 7.83 5.92 19.91 5.15 26.68-.32l16-14.43 35.73-40.9a24.93 24.93 0 0 1 8.42-5.24c7.92-3.21 20.1 0 22.89 10.51 1.67 6.26.36 15.73-7.9 17.93a14.66 14.66 0 0 1-8.72-.3z" class="logo-path" data-color="1"></path>
            <path d="M559.39 353l-1.06-1.89-11.36 1a19.75 19.75 0 0 0-1.45 4.5l-7.92 7.17-8 2.49a51.9 51.9 0 0 1 2-9.55l-1.2.81a55.41 55.41 0 0 1 6.66-13.9l.72.12a46.6 46.6 0 0 1 10.51-11.15c.35-.31 1.61-2.61 2.87-3.9l-.5-.33 1.15-.23.85-.64a42 42 0 0 1 20.53-7.91c16.51-1.77 33.76 3.94 43.17 15.68.35.34 2 2.34 2.49 3 10.88 15 9.25 35-3.25 46.27a52.3 52.3 0 0 1-6.73 5.41l-.79.49c-5.2 3.44-12.84 5-20.5 3.48a27.58 27.58 0 0 1-7.36-2.52 29.76 29.76 0 0 1-7.15-5.57 18.61 18.61 0 0 1-4.12-7.91 19.72 19.72 0 0 1-.68-3.56 34.76 34.76 0 0 1 0-6A13.84 13.84 0 0 1 585.31 357c.75 1.82-1.74 3.08-3 3.21a7.06 7.06 0 0 0-3.4 1.31c-5 4.15-5.62 11.92-1.38 17.75a13.9 13.9 0 0 0 11.55 5.9c11.91-1.24 17.22-13.56 16.29-22.59a20.55 20.55 0 0 0-6.02-12.58c-10.86-9.5-28.42-6.3-37.94 1.12-.55.43-1.51 1.3-2 1.8z" class="logo-path" data-color="1"></path>
            <path d="M66.68 353l1.06-1.89 11.36 1a19.76 19.76 0 0 1 1.45 4.5l7.92 7.17 8 2.49a51.88 51.88 0 0 0-2-9.55l1.2.81A55.4 55.4 0 0 0 89 343.61l-.72.12a46.58 46.58 0 0 0-10.48-11.15c-.35-.31-1.61-2.61-2.87-3.9l.5-.33-1.15-.23-.85-.64a42 42 0 0 0-20.53-7.91c-16.51-1.77-33.76 3.94-43.17 15.68-.35.34-2 2.34-2.49 3-10.88 15-9.25 35 3.25 46.27a52.27 52.27 0 0 0 6.73 5.41l.79.49c5.2 3.44 12.84 5 20.5 3.48a27.57 27.57 0 0 0 7.36-2.52 29.74 29.74 0 0 0 7.13-5.57 18.6 18.6 0 0 0 4.12-7.91 19.83 19.83 0 0 0 .68-3.56 34.87 34.87 0 0 0 0-6 12.93 12.93 0 0 0-6.14-9.54 13 13 0 0 0-10.91-1.8c-.75 1.82 1.74 3.08 3 3.21a7.06 7.06 0 0 1 3.4 1.31c5 4.15 5.62 11.92 1.38 17.75a13.9 13.9 0 0 1-11.55 5.9C25 384 19.72 371.64 20.66 362.61A20.55 20.55 0 0 1 26.72 350c10.86-9.5 28.42-6.3 37.94 1.12.55.43 1.51 1.3 2 1.8z" class="logo-path" data-color="1"></path>
            <path d="M84.2 338.15L67 349.3c-6.84-4.42-11-8.84-13.62-14.05-8.09-10.27-12.5-21.86-12.51-32.58 0-.62-.06-4.28-.07-6.34v-1.39a48.45 48.45 0 0 1 7-24.39c9.83-16.42 27-28.34 44.37-28.85a15.67 15.67 0 0 1 1.65-.17q1.41-.06 2.84 0c21.33.37 38.61 15.75 40.33 35.08a60.21 60.21 0 0 1 .31 9.94l-.09 1.07c-.44 7.17-4.33 15.26-11 21.28a31.78 31.78 0 0 1-7.43 5 34.28 34.28 0 0 1-10.08 2.72 21.44 21.44 0 0 1-10.14-1.69 22.81 22.81 0 0 1-3.75-1.84 40.13 40.13 0 0 1-5.5-4.13c-3-2.65-4.88-7.22-4.52-12.26a15 15 0 0 1 5.91-11.33c2.19.57 1.63 3.74.9 4.95a8.14 8.14 0 0 0-1.15 4c.38 7.44 7.07 13.44 15.38 13.59a16 16 0 0 0 13.44-6.54c7.12-11.82-.53-25.25-9.49-30.65-12.33-7.43-26.84-1.58-35.56 7.32a41 41 0 0 0-7.5 20.16c-.94 13.23 9.88 29.94 17.56 39.93z" class="logo-path" data-color="1"></path>
            <path d="M547.05 271c-8.3-5-18.68-6.78-27.85-1.25-9 5.4-16.62 18.83-9.49 30.65a16 16 0 0 0 13.44 6.54c8.31-.15 15-6.15 15.38-13.59a8.14 8.14 0 0 0-1.15-4c-.73-1.21-1.29-4.38.9-4.95a15 15 0 0 1 5.91 11.33c.35 5-1.48 9.61-4.52 12.26a40.12 40.12 0 0 1-5.5 4.13 22.84 22.84 0 0 1-3.75 1.84 21.42 21.42 0 0 1-10.14 1.69 34.27 34.27 0 0 1-10.08-2.71 31.77 31.77 0 0 1-7.43-5c-6.68-6-10.57-14.11-11-21.28l-.09-1.06a60.24 60.24 0 0 1 .31-9.94c1.72-19.33 19-34.71 40.33-35.08h2.84a15.26 15.26 0 0 1 1.65.17c17.34.51 34.54 12.43 44.37 28.85a48.46 48.46 0 0 1 7 24.39v1.39c0 2.05 0 5.72-.07 6.34 0 11.4-5 23.79-14.1 34.53-2.64 4.82-6.7 9-13.14 13.13l-17.27-11.23c7.68-10 18.51-26.7 17.56-39.93-.67-9.42-5.76-20.5-14.11-27.25z" class="logo-path" data-color="1"></path>
            <path d="M347.29 210.66c-8.25 2.34-17.56 1.52-24.15-5.32-6.44-6.68-9.91-20-1.1-28.44a14.21 14.21 0 0 1 13-2.52c7.09 2 11.44 8.71 10.06 15.17a7.22 7.22 0 0 1-1.91 3.2c-.9.87-2.11 3.45-.36 4.45a14.15 14.15 0 0 0 6.61-19.9 35.57 35.57 0 0 0-3.76-4.8 20.26 20.26 0 0 0-2.79-2.44 19 19 0 0 0-8.3-3.78 30.38 30.38 0 0 0-9.26 0 28.18 28.18 0 0 0-7.52 2.6c-7.11 3.62-12.3 9.66-14.32 15.71l-.32.89a53.42 53.42 0 0 0-2 8.59c-3 17 8.31 34.1 26.5 39.32q1.22.35 2.44.62a13.9 13.9 0 0 0 1.46.24c15 3.54 32.45-2.72 44.64-14.54 5.8-5.62 22.74-32.82 17.41-44.1-1.15-4.74-20.15 6.52-24 17.64-.64 1.85-5.49 1-6.55 2.83a35.79 35.79 0 0 1-15.78 14.57z" class="logo-path" data-color="1"></path>
            <path d="M329.62 254.72c-9.52-2.7-20.27-1.75-27.87 6.15-7.43 7.71-11.44 23-1.26 32.83a16.4 16.4 0 0 0 15 2.9c8.18-2.35 13.21-10.06 11.61-17.51a8.33 8.33 0 0 0-2.21-3.69c-1-1-2.43-4-.42-5.13a15.37 15.37 0 0 1 8.85 9.64c1.69 4.9 1.08 9.9-1.22 13.33a41 41 0 0 1-4.35 5.54 23.33 23.33 0 0 1-3.22 2.81 21.94 21.94 0 0 1-9.58 4.36 35.07 35.07 0 0 1-10.69 0 32.52 32.52 0 0 1-8.68-3c-8.21-4.18-14.2-11.16-16.53-18.13l-.37-1a61.7 61.7 0 0 1-2.33-9.92c-3.43-19.57 9.59-39.36 30.59-45.39q1.41-.4 2.82-.71a16.09 16.09 0 0 1 1.68-.27c17.29-4.08 37.46 3.14 51.53 16.78 6.69 6.49 16.68 54.8 10.52 67.83-1.33 5.47-18.29-21.31-22.73-34.14-3.16-9.14-11.13-18.75-21.17-23.22z" class="logo-path" data-color="1"></path>
            <path d="M45.38 516a3.85 3.85 0 0 0-1.22.61l1.22-.61z" class="logo-path" data-color="1"></path>
            <path d="M404.91 227.33l1.4 1.78a16.37 16.37 0 0 0-1.4-1.78zm-14.21 19.79a13.13 13.13 0 0 1-7.81-.14c-7.28-2.35-8-10.89-6.22-16.41 3-9.23 14-11.57 21-8.32a22.32 22.32 0 0 1 7.28 5.08 16.37 16.37 0 0 1 1.4 1.78l28.63 36.47 13.67 13.66c5.8 5.21 16.56 6.46 23.84 1.54 5.79-3.92 10.65-13.4 5.69-20.73-3-4.39-10-7.9-15.75-4-3.12 2.11-5.85 6.32-2.89 10.71 1.34 2-.09 5.34-2.37 2-5.08-7.5 1.16-15.66 6.49-19.27 9.9-6.7 21.09.61 26.17 8.12 8.49 12.54 0 27.1-9.91 33.8-12.62 8.54-27.06 3.63-36.57-5.3l-16.25-16.23-22.94-30.5c-2.23-3.63-5.42-8-8.92-9.16-4.26-1.38-11-.09-12.71 5.3a8.72 8.72 0 0 0 .05 5.26s.83 4.35 8.15 6.37z" class="logo-path" data-color="1"></path>
            <path d="M454.29 324c11.13-1.38 17.38 9.5 18.43 17.94 1.75 14.11-11.48 24.06-22.69 24l-9.77.32c-56-8.76-91.41-56.3-92.39-113.3-1.11-64.83 55.72-115.14 114.92-120.15 80-6.76 132.5 45.18 138.34 114.24.22 65.4-28.2 131.25-135.23 138.55l-3.29.2-1.68.09c-31.59-.46-62.2-4.93-90.42-29.73-20.37-17.9-32.58-27.46-59-27.46-8.08 1.26-11.73-7.29-11.1-15.29a41.34 41.34 0 0 1 5.28-4.25c8.83-5.4 16.57-3.38 26.53-.57 7.58 2.14 17.73 9.68 17.73 9.68 7.75 7.91 15.15 17.49 25.48 26.65 27 24 49.43 29.12 79.55 31.4 92.33-8.14 122-78.32 116.94-130-4.5-53.2-45-93.22-106.58-88-45.61 3.85-88.73 41.85-91.9 92.64-3 48.21 29.49 96.25 73.07 103.07l1.83-.12c6.51-.81 14.62-6.67 13.6-14.92a12.79 12.79 0 0 0-3.33-7s-7.69-7.65-4.31-8.07z" class="logo-path" data-color="1"></path>
            <path d="M307.72 37.62q-.84-.62-1.72-1.42c-9.66-8.59-23.45-14-38.76-14a60.48 60.48 0 0 0-30.79 8.16l-1.95 1.11q-3 1.87-6.06 4a1.84 1.84 0 0 1-.39.38c-7.67 5.83-16.59 16.65-20.26 29.46-4.39 15.31-1.24 29.69 4.38 38.69 7.93 11.86 21.25 21 36.87 18 13.58-2.66 29.17-15.89 25.67-33.81A27.39 27.39 0 0 0 270 77.23c-3.42-3.63-9.05-6-15.42-6-10.43 0-18.89 6.36-18.89 14.2.33 3.23.77 8.19 5.88 9.91 2.1.71 5.8 1.34 6.65 2.85a13.43 13.43 0 0 1-9.9 4.56c-5.88 0-11-4.1-13.26-10-.38-1.49-.64-2.88-.86-4a18.08 18.08 0 0 1-.07-7c1.13-11.53 13.09-20.61 27.69-20.61a42 42 0 0 1 6.63.52q.88.1 1.75.24c12.51 2.1 23.77 11.9 28.08 26a40.11 40.11 0 0 1 1.7 9.39 45.57 45.57 0 0 1 .13 9.13l-.06.66c-.76 25.32-26.2 41.36-47 45.44a51.62 51.62 0 0 1-32.59-3.9A63.78 63.78 0 0 1 187.91 130a75.84 75.84 0 0 1-17.8-49.34c4.1-48.54 41-85 97.23-80.29C309 3.93 348.9 39.3 348.12 84.86a96 96 0 0 1-1.23 13.82l-.45.51a63.92 63.92 0 0 1-10.27 25.74c-14.76 22.08-27.32 30.72-51.62 46l-4.95 3.1-.69.42-1.24.91c-6.23 4.3-7.74 7.78-7.74 7.78a11.33 11.33 0 0 0-1.51 5.64 11.59 11.59 0 0 0 7 10.53 12.69 12.69 0 0 0 12-1 11.55 11.55 0 0 0 5.17-8.14 12.81 12.81 0 0 1 .52 3.62v.4a15.6 15.6 0 0 1-.65 4.48c-.13.48-.27.94-.43 1.37a12.45 12.45 0 0 1-3.28 5 16.79 16.79 0 0 1-12.21 5.2 16.61 16.61 0 0 1-15.23-9.7c-4.33-6.14-4.9-14.48-1.84-20.48a36.79 36.79 0 0 1 6.13-7.92 24.21 24.21 0 0 1 5.69-4.54c29.64-18.47 34.26-25.11 52.22-50.09l.31-.54a74.35 74.35 0 0 0 5.9-33.58 68.48 68.48 0 0 0-22.07-45.84z" class="logo-path" data-color="1"></path>
            <path d="M379 69.66q.6-.16 1.26-.39a34.51 34.51 0 0 1 24.33.93 35.75 35.75 0 0 1 15.07 11.29q.4.52.82 1 1.25 1.7 2.44 3.54a1.1 1.1 0 0 0 .13.29 35.37 35.37 0 0 1 4.6 20.68c-1 9.33-5.88 16.5-11 20.19-7 4.74-16.3 6.82-24.19 1.69-6.85-4.46-12.47-15.17-6.58-24.21a16.18 16.18 0 0 1 5-4.94 12.57 12.57 0 0 1 9.78.13c5.72 2.31 8.95 7.67 7.21 12-.9 1.7-2.24 4.32-5.42 4.13-1.31-.08-3.48-.55-4.28.09a7.94 7.94 0 0 0 4.42 4.69c3.22 1.3 6.91.18 9.48-2.55.54-.73 1-1.44 1.36-2a10.69 10.69 0 0 0 1.59-3.84c1.94-6.57-2.61-14.19-10.61-17.43a24.85 24.85 0 0 0-3.75-1.18q-.5-.14-1-.25c-7.32-1.62-15.66 1.26-21.14 8a23.7 23.7 0 0 0-3 4.77 26.89 26.89 0 0 0-2.09 5l-.12.38c-5.19 14 5.2 28.47 15.7 35.31a30.51 30.51 0 0 0 18.74 5.02 37.7 37.7 0 0 0 16.46-5.15 44.83 44.83 0 0 0 20.68-23.1c8.5-27.51-3.66-55.69-35.51-65.53-23.58-7.29-53.3 3.25-63 28.4a56.78 56.78 0 0 0-2.38 7.83l.13.38a37.77 37.77 0 0 0-.07 16.38c3.2 15.37 8.17 22.88 18.1 36.65l2 2.8.28.39.48.77c2.47 3.74 2.52 6 2.52 6a6.69 6.69 0 0 1-.42 3.42 6.85 6.85 0 0 1-6.19 4.21 7.5 7.5 0 0 1-6.38-3.2 6.82 6.82 0 0 1-1-5.61 7.56 7.56 0 0 0-1.08 1.87l-.09.22a9.21 9.21 0 0 0-.63 2.6c0 .29-.06.57-.07.85a7.36 7.36 0 0 0 .69 3.48 9.92 9.92 0 0 0 5.54 5.55 9.82 9.82 0 0 0 10.5-1.94 12.14 12.14 0 0 0 5.54-10.81 21.75 21.75 0 0 0-1.61-5.7 14.31 14.31 0 0 0-2.11-3.74c-12.15-16.69-13.22-21.35-17.53-39l-.05-.37a44 44 0 0 1 4.2-19.71A40.48 40.48 0 0 1 379 69.66z" class="logo-path" data-color="1"></path>
            <path d="M175.53 253.67a16.36 16.36 0 0 1 15.18-1.58c7.92 3 12.25 11.14 10 18.41a8.3 8.3 0 0 1-2.51 3.47c-1.12.91-2.76 3.75-.86 5.06a15.33 15.33 0 0 0 9.63-8.81c2.1-4.72 1.93-9.74-.06-13.35a40.91 40.91 0 0 0-3.84-5.88 23.35 23.35 0 0 0-3-3.07 22.18 22.18 0 0 0-10.05-5.41c9.21-2.45 16.68-8.95 14.1-18.55-1.39-5.18-5.67-5.78-4.85-2.75 1.51 5.62-2.43 9.57-7.4 11.32-6.59 2.31-12.83-3.39-14.78-10.1-.83-2.87-1.08-4.86 0-7.67 2.25-6.11 9.84-8.26 13.06-8.69l2-.15c21.34-.74 34.08 24.43 38.31 34.77 6.24 15.66.11 36.18-13.24 47-11 8.85-32.12 12.65-43.34-1.25-6.71-8.31-9.37-23.88 1.6-32.73zm75.66 26c5.57-15.26 2.39-36-9.83-54.1-14.28-21.17-36.51-32.23-54.51-28.78a26.85 26.85 0 0 0-6.3 1.75c-9.45 4-16.95 15-13.76 26.85 1.79 6.63 6.7 13.76 13.58 16.45a32.44 32.44 0 0 0-8.89 2.23c-8.52 3.44-15.08 9.85-18 16.58l-.46 1a61.53 61.53 0 0 0-3.17 9.65c-5.11 19.15 6.11 39.94 26.45 47.75q1.36.52 2.74 1a16 16 0 0 0 1.65.42c16.82 5.56 37.49.13 52.66-12.19a49.47 49.47 0 0 0 15.2-21l.48-1.34c.71-2 2-5.49 2.15-6.11v-.14z" class="logo-path" data-color="1"></path>
            <path d="M299.1 480.2c4.64-6.18 12-5.16 18.12-1.06a14.05 14.05 0 0 1 5.78 8.1c1.37 5.86-.57 14.26-3.81 18.57-5.29 7-12.83 8.93-21.31 6.87-5.56-1.35-8.48-3.81-12.22-8.14a28.2 28.2 0 0 1-6-24c1-5.06 3.08-7.82 5-12.83 2.4-6.16 37.37-47.73 46-58.21 7.29-8.83 15.25-26.62 15.25-26.62 5.64-10.64 3.5-27.22-6.6-36.29-8-7.21-.62-27.41 13.11-15.09 17.51 15.72 15.54 39.18 5.71 56.77 0 0-4.13 13.28-18.25 30.4-13.65 16.56-23.73 26.2-38.18 44.24-4.81 6-10.27 14.87-10.66 20.54-.47 6.89 4.62 15.16 13.36 15.76a12.09 12.09 0 0 0 5.25-1.24 8.21 8.21 0 0 0 4.68-7.42 7.9 7.9 0 0 0-3.54-6.71c-3.66-2.35-8.24-2.9-11.12.93-1.55 2.07-3.33-1-.67-4.56z" class="logo-path" data-color="1"></path>
            <path d="M258.45 480.54c4.36-5.8 11.29-4.84 17-1a13.19 13.19 0 0 1 5.43 7.6c1.29 5.5-.67 13.67-3.72 17.72-5 6.61-13.42 8-20.09 5.69a11.5 11.5 0 0 1-1.68-.65 30 30 0 0 1-5.5-3.27 23.29 23.29 0 0 1-5.08 2.94l-.7.33a11.52 11.52 0 0 1-1.68.65c-6.64 2.29-15 .93-20-5.59a17.69 17.69 0 0 1-1.43-1.85c-1.44 1.41-4.07 1.76-7.1-.23-7.28-4.77-12.17 5-19.83 8a11.83 11.83 0 0 1-1.59.63c-23.53 7.5-37.22-12.51-60.7-4.41-10.89 3.76-13.54 13.41-24.87 15.65-19.19 4.08-24-11.67-42.76-6.41l-1.46.42-.6.19a77.53 77.53 0 0 0-13.72 5.76 12.88 12.88 0 0 1-2.37 1.41c-8.74 3.84-20-2.63-25.44-10.67-1.25-1.85-10.92 4.38-2-5.35 6.73-1.58 12.66 5.37 18.09 7.63a8.41 8.41 0 0 0 6-.85l1.56-.86a8.21 8.21 0 0 1 1.54-.79l1.05-.45a88.7 88.7 0 0 1 11.92-4.1c19.07-5.33 26.26 6.14 45.74 2 10.71-2.11 13-11.68 23.32-15.23 23.58-8.14 37.27 17.76 60.9 10.24a9.74 9.74 0 0 0 4.15-2c6-9.52 15.81-16.93 25.53-11a16.93 16.93 0 0 1 .31-5.5 13.2 13.2 0 0 1 5.43-7.6 11.07 11.07 0 0 1 7.26-3 9.81 9.81 0 0 1 9.75 4c2.5 3.32.83 6.22-.63 4.28-2.71-3.6-7-3.08-10.45-.88-4.55 2.92-4.05 9.46-.88 13.84 1.36 1.88 2.86 2.47 5.07 3.18 3.6 1.16 8.09-.53 11.09-2.12.86-.5 1.67-1 2.43-1.45s1.71-1 2.37-1.41c1.51.85 3.57 2.3 5.77 3.62 2.82 1.31 6.53 2.31 9.51 1.35 2.21-.71 3.71-1.3 5.07-3.18 3.17-4.39 3.67-10.92-.88-13.84-3.44-2.21-7.74-2.73-10.44.88-1.46 1.94-3.13-1-.63-4.28z" class="logo-path" data-color="1"></path>
            <path d="M593.81 515.35l1.57.74a8.25 8.25 0 0 0-1.57-.74zm-183-39.12c3.44 4.41 1.26 8.36-.75 5.77-3.73-4.79-9.5-4-14.08-.94l-.42.3a13 13 0 0 0-3.3 5.63c-2.22 8.22 5.17 15.31 11.66 17.06 5 1.33 11.83-1 16.79-3.31 9.49-6.07 19 .89 25.32 10 .91 1.31 3.12 1.57 4 1.89 22.91 8 37.31-19.47 61.15-12.17 10.41 3.19 13.07 12.66 23.84 14.4 19.61 3.46 26.4-8.25 45.64-3.59a88.8 88.8 0 0 1 12.05 3.68l1.07.41a8.25 8.25 0 0 1 1.57.74l1.59.81a8.41 8.41 0 0 0 6 .64c5.35-2.45 11-9.61 17.82-8.26 9.21 9.42-.68 3.52-1.86 5.42-5.14 8.22-16.19 15.09-25.05 11.56l-2.26-1.27a77.4 77.4 0 0 0-14-5.33l-.61-.17-1.47-.37c-19-4.59-23.19 11.32-42.51 7.9-11.4-1.84-14.39-11.4-25.4-14.77-23.75-7.28-36.73 13.2-60.5 6.53a11.82 11.82 0 0 1-1.61-.57c-7.55-2.67-12.78-13.9-19.61-9.86-8.33 4.93-14.66 11.32-25.36 9.83a25 25 0 0 1-16.66-10.75 18.59 18.59 0 0 1-14.89 9.13c-6.48.22-11.62-1.43-15.56-4.87-4.28 3-9.55 4.11-16 3.21a15.92 15.92 0 0 1-11.86-8.23c-2.41-4-3.76-11.5-2.52-16.38a13.19 13.19 0 0 1 5.56-7.51c5.78-3.75 12.73-4.59 17 1.29 2.44 3.37.72 6.23-.71 4.27-2.64-3.65-7-3.21-10.43-1.06-4.6 2.84-4.22 9.39-1.13 13.83 1.32 1.9 2.82 2.52 5 3.27 3.4 1.16 7.9-.23 10.86-1.75a49.1 49.1 0 0 1 4.66-3c1.53 1 3.52 2.33 5.63 3.5 2.91 1.45 6.79 2.74 10 1.76 2.22-.67 3.73-1.24 5.12-3.09 3.24-4.33 3.86-10.86-.64-13.86-3.4-2.27-7.69-2.86-10.46.69-1.49 1.92-3.11-1-.56-4.29 4.46-5.73 11.38-4.65 17-.7 0 0 .47.29 1.12.87a17.55 17.55 0 0 1 6.8-9.28c7.6-5.32 16.92-6.77 22.92.94z" class="logo-path" data-color="1"></path>
            <path d="M167.29 332.09a12.79 12.79 0 0 0-3.33 7c-1 8.25 7.09 14.11 13.6 14.92l1.47.1c43.51-6.9 75.93-54.89 72.92-103-3.17-50.79-46.29-88.78-91.9-92.64q-5.3-.45-10.39-.46C94.21 158 58.21 196.4 54 246.4c-5.1 51.63 24.56 121.73 116.71 130 30-2.29 52.35-7.49 79.28-31.38 10.23-9.07 17.57-18.6 25.24-26.46 13.83-12 30.66-15.75 51.5-11 20.53 4.71 40.58 27.16 35.37 52a30.78 30.78 0 0 1-2.64 8.75 40.12 40.12 0 0 1-14.07 17.46l-.94.76c-6.18 5.28-15.83 8.48-26 7.77a36 36 0 0 1-9.94-2.1 38.81 38.81 0 0 1-10.14-6.07 24.27 24.27 0 0 1-6.59-9.59 25.83 25.83 0 0 1-1.45-4.5 45.36 45.36 0 0 1-1-7.72c-.23-4.56 2-9.65 6.43-13.33s9.5-5 13.88-4.1c1.26 2.23-1.76 4.27-3.32 4.62a9.21 9.21 0 0 0-4.19 2.24c-5.76 6.16-5.39 16.33 1 23.21a18.13 18.13 0 0 0 15.89 5.8c15.23-3.49 20.14-20.29 17.5-31.84-2.71-11.81-12.35-18.83-22.92-21.69a38.61 38.61 0 0 0-5.75-.27c-.59.07-1.15.13-1.68.16-2.35.21-4.58.51-6.71.9q-.93.21-1.84.45a17.65 17.65 0 0 1-2.16.42c-14.78 3.73-25.28 12.33-40.1 25.35C227.18 381 196.58 385.5 165 386l-1.68-.09h-3.17c-26.73-1.86-47.78-7-64.32-14.78-54.83-24.33-71.2-74.28-71-124 5.84-69.06 58.38-121 138.34-114.24 59.2 5 116 55.32 114.92 120.15-1 57-36.36 104.54-92.39 113.3l-9.77-.32a22.89 22.89 0 0 1-9.73-2.3C157.81 360 151.42 352 152.67 342c1-8 6.68-18.23 16.78-18.06a15.34 15.34 0 0 1 2.15.12c3.37.42-4.31 8.07-4.31 8.07z" class="logo-path" data-color="1"></path>
            <path d="M68.64 654.21c11.44-2.49 23-3.3 31.9-3.92 10.35-.72 13-.67 17.38-.49 1.44 3.29 15.44 34 15.68 37.37.39 5.54-5.22 8.35-11.41 9.75l.39 5.54c7.43-1 18.66-3 33.59-4 10.11-.71 15.68-.61 21.25-.52l-.34-4.82c-9.73-.77-13.87-1.21-30.55-39-5.71-12.42-34.13-72.85-40.18-86.7-3.44-7.74-5.26-12.94-7-17.65l-6.26.44c-1.14 4.43-2.28 8.87-4.27 15.06-2.56 8.4-37.05 113.64-44.53 127.71-4.05 7.78-10 9.41-13.79 10.4l.34 4.82c3.84-.51 13.95-1.22 16.84-1.42.48 0 7-.25 14-.5s14.24-.51 15.92-.63l-.39-5.54c-6.81-.49-18.47-1.13-19.09-10-.25-3.61 3.17-13.53 4.55-18l6-17.84zm20.42-64.33c9.07 15.57 17.09 33.4 24.84 50.76a108.11 108.11 0 0 1-15.58 2.06 176 176 0 0 1-26.15-.35l16.89-52.47z" fill-rule="evenodd" class="logo-path" data-color="1"></path>
            <path d="M272.46 626.56c-9.29-8.22-18.2-16.64-27.12-25.25C212.61 571 212 570.45 200 557.13l-9 .16c-1.52 0-5.72-.09-9.72-.21s-8-.43-9-.42a28.37 28.37 0 0 0 .1 5.71c16.23 2.19 16.65 15.14 16.55 31v55.83c-.1 16.2-1.12 22.89-13.12 23.29a23.17 23.17 0 0 0 .09 5.14c3.81-.26 22.26-1.72 26.45-1.8 4.57-.08 7.81.05 10.48.2 2.86.33 5.16.67 7.64.82a11.5 11.5 0 0 0-.09-5.14c-21.2-2.87-21.32-9.73-21.44-27.45v-44c-.07-3.81.16-12.58.29-16.39a90.3 90.3 0 0 1 7.94 7.1l59.46 55.17c10.26 9.35 20.53 19.08 27.22 31.16l5.71-.1-.51-7.23c-.28-5.33-.8-13.13-.84-15.23-.1-5.71-.21-34.1-.14-40.58-.18-10.1-.36-42.49 3.14-49.41 2.21-4.42 7.54-4.51 10.21-4.37l-.08-4.76c-2.48 0-14.66.45-15.62.46a97.18 97.18 0 0 1-10.49-.58c-4.39-.3-8.58-.42-10.11-.39a30 30 0 0 0-4.76.46l-1.64 4.22c17.94 1.4 19.49 3.28 20.2 43.85.09 5.33 0 32.2.09 38.11l-16.65-15.14z" class="logo-path" data-color="1"></path>
            <path d="M315.31 674.62a275.24 275.24 0 0 1 27.63.1l30.28.91.46-4.76c-14.27-1.39-15.39-2.56-16.62-8.29-1-5.54-.42-41.55-.27-50.31.17-9.72.74-42.48 5.4-47.54 2.14-2.25 5.19-2.77 14.53-2.6l.1-5.91c-5 .1-21.73.38-26.49.3-1 0-7.43-.32-14.47-.82-6.85-.31-14.28-.63-16.76-.67l-.28 5.14c14.48.25 15.94 3.52 16.86 5.44 2.76 5.57 2.14 41.39 2 50.15-.18 10.29-.73 41.91-4.46 48.32-2.75 4.53-11.33 5.14-17.82 5.79l-.08 4.76z" class="logo-path" data-color="1"></path>
            <path d="M384 643.86c3.09 15.17 4 21.3 4.23 31.6l5.14.18c0-.76.25-1.71 2-1.65.57 0 1.89.45 2.27.46a129.8 129.8 0 0 0 27.12 4c36.56 1.28 44.14-19.24 44.58-31.8.84-24-19.83-32.53-35.06-38.78-22.57-8.8-26.14-15.78-25.8-25.49.29-8.38 4.91-20.61 22.43-20 2.48.09 28.18 1 31.71 25.51l4 .14.2-5.71c0-.38-.05-9.34 0-11.06 0-.38.91-9.69 1.15-11l-3.21-.87a9.66 9.66 0 0 1-5.38 1.15c-3-.11-22-3.06-26.2-3.2-23.42-.82-40.29 12.7-41 32.5-.71 20.37 13.49 28.69 30.41 35.38 16.93 6.5 30.06 12.68 29.51 28.29-.64 18.28-15 19.11-19.53 19-7.81-.27-18-3.11-26.06-7-13.67-7-16.13-13.14-17.89-22.55l-4.61 1z" class="logo-path" data-color="1"></path>
            <path d="M499.64 650.31c11.67-.88 23.23-.07 32.14.55 10.35.72 13 1.15 17.28 1.93 1 3.45 10.56 35.82 10.32 39.19-.39 5.54-6.33 7.54-12.66 8.07l-.39 5.54c7.5 0 18.9-.37 33.82.67 10.11.71 15.62 1.58 21.12 2.44l.34-4.82c-9.53-2.12-13.57-3.13-24.82-42.86-3.92-13.1-23.65-76.89-27.72-91.45-2.33-8.15-3.41-13.54-4.52-18.46l-6.26-.44c-1.75 4.23-3.5 8.46-6.32 14.32-3.7 8-52.51 107.37-61.88 120.27-5.1 7.14-11.2 7.93-15.1 8.38l-.34 4.82c3.87 0 14 .74 16.87.94.48 0 7 .73 13.93 1.46s14.17 1.48 15.86 1.59l.39-5.54c-6.67-1.43-18.13-3.69-17.51-12.59.25-3.61 5-13 7-17.17l8.43-16.83zm29.17-60.86c6.82 16.69 12.28 35.45 17.53 53.72a108.14 108.14 0 0 1-15.72-.13 175.92 175.92 0 0 1-25.85-4l24-49.61z" fill-rule="evenodd" class="logo-path" data-color="1"></path>
        </g>
    </g>
</svg>